<?xml version="1.0" encoding="UTF-8" standalone="no"?>
<!DOCTYPE svg PUBLIC "-//W3C//DTD SVG 20010904//EN" "http://www.w3.org/TR/2001/REC-SVG-20010904/DTD/svg10.dtd">
<svg version="1.0" xmlns="http://www.w3.org/2000/svg" width="512.000000pt" height="512.000000pt" viewBox="0 0 512.000000 512.000000" preserveAspectRatio="xMidYMid meet">
<metadata>
Created by potrace 1.16, written by Peter Selinger 2001-2019
</metadata>
<g transform="translate(0.000000,512.000000) scale(0.100000,-0.100000)" fill="#000000" stroke="none">
<path d="M3270 4910 c-349 -22 -722 -129 -920 -263 -129 -88 -219 -188 -316 -356 -69 -117 -87 -137 -133 -152 -20 -6 -52 -23 -71 -39 -19 -15 -51 -32 -71 -39 -70 -23 -106 -92 -93 -180 14 -99 3 -126 -68 -162 -21 -11 -45 -30 -53 -43 -20 -30 -45 -127 -45 -174 0 -37 30 -114 47 -125 6 -4 6 -28 0 -63 -13 -67 3 -174 33 -235 28 -54 33 -49 8 8 -17 38 -20 60 -16 127 9 144 52 182 60 53 6 -91 33 -152 97 -220 68 -72 69 -103 7 -162 -36 -35 -57 -46 -127 -64 -150 -40 -234 -71 -315 -117 -112 -64 -123 -81 -18 -28 167 83 359 114 569 92 69 -8 70 -8 35 8 -19 8 -72 20 -118 27 l-83 11 34 18 c53 26 87 73 87 117 0 31 -8 44 -46 81 -62 60 -84 109 -84 192 0 85 5 98 41 98 16 0 55 13 86 30 38 19 85 33 136 40 43 5 95 19 115 29 54 28 115 98 157 180 19 39 51 95 69 124 48 75 63 114 81 218 16 97 23 115 64 167 27 34 128 109 136 101 2 -3 7 -23 11 -45 5 -34 2 -45 -21 -73 -25 -29 -29 -31 -45 -16 -27 25 -32 17 -9 -14 l21 -29 24 26 24 27 19 -24 c21 -27 54 -24 102 10 51 36 41 19 -39 -66 -53 -57 -90 -108 -112 -154 -36 -76 -56 -83 -46 -17 12 80 -13 11 -39 -110 -44 -201 -43 -198 -44 -124 0 36 6 94 15 130 8 36 12 76 9 90 -4 14 -3 21 1 17 5 -4 15 7 24 25 11 25 22 33 42 33 27 1 58 20 58 38 0 5 -8 3 -17 -6 -10 -8 -31 -17 -48 -19 -20 -2 -36 -13 -51 -36 -26 -38 -73 -225 -81 -323 -5 -58 -10 -71 -29 -84 -13 -9 -47 -44 -74 -79 -28 -35 -82 -90 -121 -121 -39 -32 -84 -77 -99 -102 -15 -24 -43 -54 -61 -66 -67 -44 -84 -129 -58 -286 14 -90 27 -120 59 -136 21 -11 29 -24 34 -57 9 -61 37 -102 91 -134 66 -38 125 -47 195 -29 42 11 103 14 231 12 180 -2 181 -2 300 47 13 6 14 -2 7 -66 -5 -40 -9 -156 -9 -258 0 -211 -14 -312 -54 -390 -33 -64 -114 -153 -172 -187 -187 -109 -432 -50 -561 136 -50 72 -72 129 -79 206 -17 187 135 371 365 442 l77 24 -54 -6 c-69 -8 -170 -46 -248 -95 -34 -21 -65 -35 -68 -30 -7 11 30 37 125 90 61 34 69 40 40 35 -19 -4 -60 -18 -91 -32 l-55 -24 -65 63 c-237 232 -603 213 -828 -44 -112 -128 -196 -297 -226 -454 -20 -101 -13 -617 10 -731 78 -400 342 -741 710 -919 230 -111 361 -139 645 -138 226 0 308 12 492 74 329 110 643 358 850 670 201 303 353 756 388 1160 14 164 12 339 -5 453 -25 170 -113 394 -212 543 l-36 54 39 46 c112 132 145 214 145 348 -1 305 -188 543 -471 600 -238 48 -468 19 -640 -81 -81 -47 -186 -151 -224 -221 -26 -49 -27 -57 -17 -98 18 -72 6 -110 -57 -173 -65 -65 -102 -111 -102 -125 0 -6 14 6 31 27 38 46 55 48 33 5 -17 -35 -316 -333 -371 -371 -71 -48 -120 -169 -109 -269 4 -45 3 -58 -8 -58 -41 0 -66 78 -66 207 0 71 4 95 16 108 21 20 29 13 15 -13 -6 -12 -11 -33 -11 -49 l1 -28 13 30 12 30 7 -32 c9 -48 25 -40 32 15 11 83 13 87 49 100 20 7 45 27 58 45 12 18 56 64 97 103 47 44 89 95 111 134 19 35 69 100 111 144 69 74 77 87 93 151 27 109 70 180 166 275 119 119 270 202 432 237 90 19 264 21 338 4 175 -41 349 -179 428 -341 56 -115 72 -183 72 -311 l0 -107 70 -84 c166 -200 243 -435 242 -748 0 -169 -19 -309 -66 -479 -18 -67 -31 -121 -29 -121 9 0 70 138 100 225 78 228 99 426 69 662 -29 228 -73 357 -184 543 -28 47 -49 87 -46 89 2 2 15 -4 28 -13 54 -35 107 -13 121 49 7 29 6 29 -12 -5 -26 -49 -63 -52 -104 -8 -52 57 -54 68 -8 45 50 -25 89 -13 89 28 0 15 4 24 10 20 23 -14 -45 117 -116 222 -159 239 -382 418 -593 475 -112 31 -287 30 -401 -2 -133 -37 -271 -106 -386 -194 -26 -20 -50 -33 -55 -31 -4 3 -23 -4 -41 -15 -58 -35 -98 -19 -98 40 0 16 5 20 18 16 9 -2 27 -7 39 -11 21 -6 90 21 80 32 -3 2 -14 0 -25 -6 -48 -26 -105 -1 -117 49 -4 20 1 29 25 46 l31 21 30 -28 c36 -33 92 -53 134 -46 25 3 23 4 -11 6 -40 1 -134 50 -134 70 0 5 26 30 57 57 52 45 63 45 25 2 -28 -33 11 -71 83 -83 39 -6 38 -5 -15 17 -30 13 -56 30 -58 39 -6 30 75 117 139 150 33 16 65 29 70 27 5 -2 -14 -29 -41 -61 -71 -84 -69 -91 36 -101 l59 -5 -62 16 c-35 9 -63 21 -63 28 0 22 135 144 175 158 104 36 106 34 36 -37 -40 -40 -62 -70 -58 -79 3 -8 36 -21 78 -31 78 -18 109 -14 38 4 -24 6 -59 16 -78 22 l-33 10 58 59 c63 64 129 102 166 97 21 -3 20 -5 -15 -26 -42 -27 -60 -53 -51 -76 6 -17 99 -66 123 -66 9 0 -9 13 -38 28 -75 37 -85 56 -46 88 47 38 105 61 170 68 l60 7 -47 -30 c-86 -54 -84 -86 8 -150 l49 -34 -54 49 c-63 57 -63 77 -3 116 48 32 74 37 147 29 59 -7 60 -7 30 -20 -43 -18 -75 -51 -75 -76 0 -29 29 -65 71 -89 31 -17 31 -16 -8 18 -70 61 -56 105 44 145 36 15 79 8 213 -36 254 -81 517 -325 690 -638 73 -133 160 -365 200 -535 16 -70 19 -75 15 -32 -9 83 -64 288 -106 394 -38 96 -122 268 -194 398 l-36 65 41 -45 c67 -74 179 -244 230 -353 56 -117 122 -306 151 -434 31 -140 36 -333 10 -473 -30 -168 -83 -353 -147 -514 -31 -77 -57 -150 -58 -161 -1 -19 -57 -137 -212 -448 -41 -81 -72 -147 -70 -147 2 0 36 60 74 133 98 187 255 459 313 542 197 282 232 349 264 500 23 105 23 334 1 470 -33 199 -151 574 -240 759 -187 388 -524 687 -936 830 -80 28 -434 112 -443 105 -1 -1 -54 -5 -117 -9z m172 -47 c23 -22 65 -42 142 -67 60 -20 143 -54 186 -76 76 -40 191 -132 179 -144 -3 -4 -42 7 -85 22 -103 38 -243 70 -374 85 l-105 12 47 27 c54 33 65 54 41 80 -56 62 -186 66 -443 13 -329 -68 -488 -152 -634 -334 -30 -36 -68 -74 -85 -84 -33 -19 -44 -7 -12 15 10 7 33 36 51 63 18 28 47 66 64 85 20 23 23 28 7 15 -13 -11 -40 -42 -61 -70 -21 -27 -51 -66 -69 -85 -35 -39 -38 -50 -15 -50 18 0 -9 -39 -96 -140 -75 -86 -83 -102 -71 -142 9 -32 9 -32 10 14 1 44 6 53 74 129 164 186 314 344 361 381 54 43 145 93 153 84 7 -7 -133 -160 -174 -192 -18 -14 -38 -35 -44 -47 -7 -16 -2 -13 18 9 15 17 44 41 63 52 19 12 71 58 115 102 88 89 142 121 256 150 40 11 74 18 76 17 8 -9 -113 -118 -140 -126 -26 -8 -28 -9 -9 -10 38 -2 85 26 125 73 45 55 104 83 187 92 74 7 177 -9 200 -31 30 -30 0 -48 -136 -82 -71 -18 -138 -30 -149 -27 -13 3 -16 2 -8 -3 8 -6 -21 -20 -85 -42 -132 -44 -304 -129 -382 -189 -111 -84 -288 -287 -268 -307 3 -3 34 32 70 78 142 178 307 293 539 375 164 58 277 77 449 76 114 0 167 -5 200 -16 44 -16 43 -16 -80 -11 -212 9 -396 -26 -568 -107 -99 -47 -151 -82 -257 -170 -44 -37 -121 -94 -171 -127 -144 -97 -176 -143 -195 -280 -13 -95 -37 -152 -119 -274 -128 -191 -164 -221 -288 -243 -43 -8 -110 -28 -148 -44 -38 -17 -70 -30 -70 -29 -1 1 0 14 3 29 9 48 76 112 165 158 46 24 91 50 101 59 22 19 45 57 28 47 -13 -8 -14 -4 -5 18 3 9 9 14 13 11 4 -2 8 3 8 12 0 11 -8 7 -24 -13 -50 -61 -64 -71 -110 -89 -26 -9 -65 -28 -85 -41 -21 -13 -41 -24 -45 -24 -15 -1 -78 -90 -88 -124 -5 -19 -13 -37 -16 -40 -11 -12 -74 40 -96 79 -29 52 -29 107 2 173 25 55 41 69 31 28 -10 -41 13 -41 56 0 52 51 64 75 88 180 20 86 67 180 108 217 10 9 46 30 79 46 73 36 123 91 207 226 112 184 222 300 331 351 l30 14 -25 -17 c-118 -85 -217 -192 -292 -318 -23 -38 -63 -103 -89 -143 -48 -72 -48 -73 -42 -140 5 -62 3 -69 -19 -90 -14 -12 -55 -31 -92 -42 -38 -10 -74 -24 -82 -31 -8 -7 -17 -9 -20 -6 -5 5 24 28 92 75 11 7 1 4 -21 -7 -34 -16 -96 -69 -87 -74 2 -1 -6 -22 -17 -47 -11 -25 -20 -61 -20 -80 l1 -35 7 36 c11 53 47 105 87 124 34 16 144 37 153 29 2 -2 -3 -14 -12 -28 -11 -17 -29 -26 -59 -31 -92 -14 -148 -58 -148 -115 0 -14 5 -18 17 -13 15 6 15 3 -3 -28 -11 -19 -50 -54 -88 -79 -69 -46 -95 -78 -96 -117 0 -29 17 -29 54 0 35 28 31 63 -5 52 -16 -5 -19 -4 -14 5 14 22 128 67 183 72 93 9 174 84 188 174 4 31 18 59 45 92 25 29 51 80 71 137 33 92 118 219 172 258 l25 17 -35 -97 c-19 -54 -42 -109 -51 -123 -24 -38 -55 -70 -63 -65 -4 3 -10 -4 -13 -15 -3 -12 0 -20 7 -20 23 0 84 76 127 159 35 69 64 105 158 201 69 69 142 132 179 154 81 49 222 110 317 137 41 12 73 24 71 26 -2 3 -37 -5 -78 -17 -245 -72 -359 -133 -495 -263 -102 -99 -119 -105 -89 -32 14 34 14 33 -61 -27 -111 -91 -201 -226 -217 -328 -7 -41 -41 -100 -57 -100 -8 0 -8 4 -1 13 22 26 31 99 20 154 l-11 53 55 83 c31 45 82 125 114 177 78 128 172 219 304 297 127 74 188 102 328 146 183 59 291 76 449 74 89 -2 93 -3 125 -34z m603 -236 c66 -35 119 -68 118 -75 -2 -6 11 -19 27 -27 17 -9 30 -13 30 -10 0 22 225 -172 297 -255 67 -78 163 -214 163 -232 0 -5 -29 18 -65 53 -36 34 -65 67 -65 73 1 6 19 -9 40 -33 22 -24 40 -40 40 -36 0 11 -46 63 -82 92 -25 21 -29 22 -14 5 31 -35 5 -25 -44 18 l-45 40 45 -5 45 -5 -30 14 c-16 9 -38 15 -48 16 -31 0 -141 56 -180 89 -40 36 -46 55 -21 65 30 12 51 6 94 -26 73 -56 80 -61 80 -56 0 3 -27 28 -61 56 -51 43 -67 52 -100 52 -26 0 -42 -5 -45 -15 -5 -11 -18 -6 -64 25 -68 47 -110 98 -90 110 7 5 24 4 37 -1 14 -5 32 -9 41 -9 29 0 -7 18 -53 26 -48 8 -216 115 -178 114 4 0 62 -29 128 -63z m-503 -346 c134 -35 249 -107 410 -260 140 -133 286 -313 276 -341 -2 -6 -28 7 -57 30 -30 22 -59 40 -65 40 -12 0 -10 -2 72 -65 45 -35 62 -54 62 -71 0 -20 -5 -24 -29 -24 -42 0 -77 33 -96 91 -9 27 -18 55 -19 62 -5 28 -72 146 -111 197 -79 102 -225 225 -330 278 -66 33 -177 63 -266 71 l-84 8 81 2 c51 1 108 -6 156 -18z m-251 -259 c34 -28 19 -48 -64 -86 -41 -19 -77 -39 -81 -45 -4 -6 -31 -26 -60 -46 -58 -38 -89 -87 -142 -220 -33 -84 -61 -132 -123 -205 -74 -88 -79 -98 -26 -51 61 53 88 83 127 141 l30 45 -6 -40 c-3 -22 -19 -59 -36 -83 -17 -24 -27 -42 -23 -40 72 36 82 38 155 26 93 -14 153 -5 211 32 67 42 82 76 82 187 1 51 3 93 5 94 3 1 20 -7 37 -18 29 -16 33 -23 33 -62 0 -91 -76 -191 -184 -242 -33 -16 -50 -27 -36 -23 96 24 198 117 224 204 9 30 16 68 16 86 0 21 6 34 17 38 23 9 104 -3 130 -20 32 -20 63 -86 63 -134 0 -40 -9 -54 -63 -97 -8 -7 -20 -35 -26 -64 -18 -83 -83 -209 -132 -256 -68 -65 -269 -188 -352 -216 -41 -13 -98 -41 -127 -61 -85 -58 -94 -47 -19 22 32 29 61 45 90 51 42 8 43 9 10 10 -33 1 -34 1 -16 21 22 24 43 25 73 4 13 -9 26 -14 29 -11 2 3 -10 13 -28 23 -30 15 -31 18 -15 29 14 11 24 11 53 -1 19 -8 40 -13 46 -11 7 2 -3 7 -20 11 -18 4 -35 11 -38 16 -3 4 40 28 94 51 55 24 99 45 97 47 -4 3 -159 -47 -214 -69 -29 -12 -34 -11 -53 8 l-22 21 31 16 c17 9 45 16 62 16 46 0 170 30 211 51 45 22 99 67 99 82 0 6 -10 1 -22 -10 -43 -38 -96 -63 -173 -83 -43 -11 -87 -20 -97 -20 -37 0 -8 17 59 35 96 25 154 57 211 114 50 50 96 130 107 186 4 22 -1 16 -20 -22 -35 -70 -104 -139 -168 -168 -29 -13 -104 -35 -168 -49 -171 -36 -231 -73 -309 -189 -39 -58 -85 -65 -56 -9 9 17 18 63 21 104 l6 73 -17 -35 c-10 -19 -26 -55 -37 -79 -29 -64 -89 -116 -184 -162 -46 -23 -89 -49 -96 -59 -17 -25 -125 -106 -201 -152 -51 -31 -70 -37 -118 -37 -72 -1 -93 17 -103 88 -8 60 -1 100 30 162 22 43 95 119 114 119 19 0 331 318 364 371 19 31 46 64 58 73 19 13 24 28 30 91 14 140 88 248 238 343 116 74 195 99 317 101 56 1 77 -3 95 -17z m321 -27 c63 -31 149 -109 198 -181 174 -252 11 -594 -388 -815 -80 -45 -106 -54 -157 -57 -33 -2 -62 -6 -65 -9 -3 -3 18 -3 47 -2 29 2 49 1 45 -3 -4 -3 -56 -34 -115 -67 l-108 -60 3 52 c3 48 5 51 35 59 25 6 39 4 58 -8 14 -9 28 -14 31 -11 3 3 -7 12 -22 20 l-27 14 44 26 c41 25 45 25 69 10 25 -16 25 -16 7 4 -18 20 -17 21 11 42 22 15 47 21 94 23 l63 1 -50 6 -50 6 35 23 c24 15 52 22 90 24 l55 1 -49 6 -50 6 36 28 c20 15 43 27 51 27 7 0 41 14 75 30 154 78 287 315 267 477 -13 107 -111 242 -198 272 l-29 11 31 -29 c24 -22 31 -38 31 -65 0 -35 -1 -36 -40 -36 -22 0 -40 4 -40 9 0 4 -11 20 -25 35 -27 30 -60 34 -86 10 -17 -15 -20 -15 -45 5 -15 12 -41 21 -61 21 -19 0 -48 7 -66 17 -29 14 -31 14 -19 0 8 -9 39 -21 70 -28 40 -8 72 -23 106 -50 27 -22 56 -39 66 -39 15 0 40 -37 40 -59 0 -16 -95 9 -130 34 -22 16 -38 21 -44 15 -6 -6 -30 -10 -55 -10 l-46 0 33 20 c32 20 42 33 20 26 -7 -3 -26 -7 -41 -11 -19 -4 -31 -15 -38 -34 -11 -32 -39 -46 -109 -56 -62 -10 -105 -31 -140 -71 -16 -19 -32 -34 -34 -34 -12 0 8 68 30 107 16 27 42 52 72 69 63 36 82 54 82 74 0 12 24 28 78 51 76 34 79 34 216 33 117 -1 135 1 116 11 -13 7 -31 10 -39 7 -9 -3 -12 -1 -7 6 7 12 -51 32 -96 32 -15 0 -30 5 -34 11 -15 24 137 4 198 -26z m-1865 8 c-7 -14 -34 -78 -40 -93 -3 -8 -6 -2 -6 13 -1 32 24 87 40 87 6 0 8 -3 6 -7z m2010 -171 c70 -95 88 -190 55 -298 -25 -83 -78 -173 -135 -232 -43 -44 -162 -111 -174 -98 -4 4 1 22 11 40 12 24 23 32 36 29 25 -7 89 29 130 72 30 31 35 43 35 83 0 35 4 51 18 61 10 7 28 34 39 60 16 37 19 58 14 110 -8 75 -25 112 -66 143 -23 17 -30 30 -30 55 0 33 1 33 23 18 13 -8 32 -27 44 -43z m-197 28 c11 -11 20 -24 20 -30 0 -16 -66 -11 -81 6 -11 14 -10 18 6 30 25 18 31 18 55 -6z m-1612 -67 c-2 -20 -9 -29 -25 -31 -28 -4 -31 24 -5 44 26 20 34 17 30 -13z m1698 -15 c-6 -31 -22 -58 -35 -58 -4 0 -13 17 -21 38 -8 20 -16 40 -18 45 -2 4 15 7 38 7 42 0 42 0 36 -32z m97 -20 c20 -40 8 -58 -38 -58 -29 0 -34 4 -40 30 -9 42 18 85 44 71 10 -6 25 -25 34 -43z m1063 -124 c-4 -13 -10 -24 -14 -24 -12 0 -42 101 -42 136 1 26 4 23 31 -30 21 -39 29 -66 25 -82z m-1152 42 c-9 -36 -22 -42 -30 -11 -4 15 -1 32 6 41 18 21 33 3 24 -30z m-404 -29 c0 -62 -65 -132 -131 -142 l-34 -5 36 11 c20 6 51 26 69 44 28 29 34 44 38 91 5 57 22 58 22 1z m518 -1 c5 -64 0 -69 -55 -47 -71 28 -70 73 2 84 46 6 50 3 53 -37z m-474 -68 c-44 -88 -111 -128 -216 -128 -51 0 -68 3 -58 10 8 5 31 10 50 10 99 0 178 59 215 160 l20 55 3 -37 c2 -21 -4 -51 -14 -70z m-174 52 c0 -23 -26 -44 -45 -36 -20 7 -19 35 2 58 18 21 43 8 43 -22z m1720 -30 c0 -25 -10 -50 -21 -50 -10 0 -12 40 -3 64 8 20 24 11 24 -14z m-1121 -21 c37 -13 40 -37 9 -66 -31 -29 -83 -21 -74 11 3 11 6 31 6 44 0 25 12 27 59 11z m479 -214 c31 -47 72 -143 72 -168 0 -6 -15 20 -34 58 -18 39 -59 107 -90 153 -38 56 -58 96 -62 125 -5 41 -4 40 38 -38 24 -44 58 -102 76 -130z m670 176 c8 -23 7 -34 -6 -52 l-15 -22 -9 23 c-7 20 6 80 17 80 2 0 8 -13 13 -29z m-1180 -73 c22 -22 14 -75 -18 -111 -30 -35 -115 -86 -125 -76 -3 4 -3 25 1 47 6 36 9 40 25 32 9 -6 26 -7 36 -3 16 6 15 8 -7 13 -36 9 -38 45 -4 81 29 31 71 38 92 17z m1195 -66 l-18 -27 -3 38 c-2 21 2 45 9 54 12 13 14 12 22 -11 7 -20 4 -33 -10 -54z m-2561 -34 c-12 -19 -61 -72 -109 -119 -48 -47 -102 -103 -120 -125 -17 -21 -34 -36 -38 -32 -14 14 37 78 118 146 45 39 100 92 122 120 45 56 58 61 27 10z m2598 -14 c0 -13 -4 -24 -8 -24 -4 0 -8 -10 -9 -21 -1 -12 -7 -27 -12 -32 -15 -15 -14 40 0 81 12 36 29 34 29 -4z m25 -99 l7 -40 -16 29 c-9 15 -16 38 -16 49 0 34 18 7 25 -38z m-21 -32 c4 -9 1 -32 -5 -52 -11 -31 -13 -33 -20 -16 -4 11 -8 37 -8 57 -1 28 2 36 13 32 8 -3 17 -13 20 -21z m30 -154 c-3 -26 -13 -55 -22 -65 -10 -11 -23 -30 -30 -44 l-13 -25 6 25 c3 14 10 52 15 85 4 33 14 76 21 95 l13 35 8 -30 c5 -17 6 -51 2 -76z m-1904 83 c0 -8 -52 -42 -64 -42 -19 0 -2 30 22 38 35 13 42 14 42 4z m-92 -54 c-6 -16 -36 -34 -44 -25 -9 9 15 37 33 37 8 0 13 -5 11 -12z m58 -42 c19 -15 18 -15 -7 -41 l-25 -26 -25 27 c-23 25 -24 26 -5 40 25 18 37 18 62 0z m696 -43 c-28 -23 -52 -30 -52 -14 0 5 15 21 32 35 42 32 61 12 20 -21z m-832 -13 c-11 -21 -31 -23 -37 -4 -2 5 7 21 19 34 19 21 23 22 26 8 2 -9 -2 -26 -8 -38z m72 -7 c17 -15 17 -18 2 -34 -13 -15 -21 -16 -38 -7 -29 15 -29 14 -16 37 13 25 27 26 52 4z m842 -46 c28 -56 28 -58 10 -78 -27 -30 -55 -20 -88 34 l-29 48 28 29 c16 17 34 29 40 27 5 -1 23 -29 39 -60z m1156 -70 c-13 -43 -29 -44 -43 -2 -8 23 -5 37 19 82 l29 53 3 -47 c2 -27 -2 -65 -8 -86z m-1296 58 c39 -62 29 -66 -12 -4 -18 27 -29 49 -25 49 5 0 21 -20 37 -45z m-846 8 c3 -21 -1 -23 -37 -23 -34 0 -41 3 -41 19 0 38 73 41 78 4z m96 -12 c15 -16 14 -20 -9 -41 -25 -23 -25 -23 -40 -4 -40 52 5 93 49 45z m-194 -6 c10 -12 5 -22 -27 -59 l-38 -45 -16 37 c-19 43 -17 49 25 68 40 17 41 17 56 -1z m850 -16 c7 -11 10 -22 8 -24 -2 -2 -59 -39 -128 -83 l-125 -80 -22 20 c-26 25 -27 57 -1 50 18 -4 203 82 214 100 3 5 -34 -11 -83 -35 -138 -69 -151 -65 -18 6 66 36 125 65 132 66 7 1 17 -8 23 -20z m1351 -75 c16 -19 13 -49 -6 -77 -12 -17 -13 -17 -19 5 -3 13 -5 52 -5 88 1 53 2 59 9 33 4 -18 14 -40 21 -49z m-1851 11 c0 -42 -3 -47 -62 -95 l-63 -50 -16 52 c-15 51 -15 53 4 63 13 6 33 4 63 -7 55 -19 57 -13 4 11 -37 17 -39 19 -23 33 26 22 77 47 85 41 5 -2 8 -24 8 -48z m-222 13 c2 -21 -7 -38 -36 -70 l-40 -42 -36 27 c-42 33 -44 46 -13 74 35 32 60 43 92 40 24 -2 31 -7 33 -29z m-238 -8 c11 -11 20 -26 20 -34 0 -21 -58 -66 -85 -66 -47 0 -66 76 -27 108 24 18 69 15 92 -8z m998 -5 c7 -14 12 -39 12 -54 0 -36 -67 -140 -112 -174 -33 -25 -107 -62 -113 -55 -1 2 -7 17 -13 35 -9 28 -8 33 9 38 33 11 113 81 133 116 17 31 15 30 -29 -14 -49 -50 -101 -87 -122 -87 -7 0 -19 13 -28 30 -15 29 -15 30 22 49 21 11 79 47 128 80 50 34 93 61 96 61 3 0 11 -11 17 -25z m152 -59 c0 -30 -1 -30 -20 13 -25 54 -25 59 0 36 12 -11 20 -31 20 -49z m129 2 c16 -35 36 -85 45 -113 16 -47 16 -50 -1 -63 -16 -12 -24 -7 -71 45 -59 65 -86 115 -77 144 6 17 48 48 68 49 5 0 21 -28 36 -62z m1081 -38 c-15 -69 -148 -325 -246 -473 -41 -62 -74 -109 -74 -105 0 4 31 67 68 140 49 95 78 167 101 253 34 125 44 146 60 130 6 -6 4 -34 -5 -74 -8 -35 -13 -66 -10 -68 3 -3 8 8 12 23 3 16 17 48 31 71 23 42 62 150 64 182 1 11 3 11 6 -4 3 -10 0 -44 -7 -75z m-2075 37 c8 -13 17 -37 21 -53 l6 -31 -56 10 c-31 6 -56 14 -56 19 0 12 53 78 62 78 4 0 14 -10 23 -23z m-411 -22 c21 -33 21 -33 -21 -44 -55 -16 -62 -14 -69 16 -13 51 60 74 90 28z m2392 -42 c-11 -29 -17 -6 -9 33 7 36 8 37 11 11 2 -16 1 -36 -2 -44z m-2163 32 c20 -14 37 -30 37 -35 0 -15 -71 -59 -106 -66 -27 -5 -32 -2 -49 30 -11 19 -17 37 -14 40 14 15 75 54 84 55 6 1 27 -10 48 -24z m971 -93 c38 -113 70 -244 81 -328 5 -41 3 -55 -10 -68 -61 -60 -171 -53 -272 19 -70 50 -87 60 -77 43 5 -7 8 -22 7 -33 -1 -16 -1 -17 3 -2 5 16 10 14 40 -13 61 -53 112 -74 184 -75 46 0 74 5 93 18 14 9 29 17 33 17 12 0 -3 -156 -18 -187 -7 -15 -30 -37 -49 -47 -32 -18 -41 -18 -78 -7 -78 23 -135 89 -178 209 -18 52 -22 58 -17 28 24 -157 133 -274 246 -264 47 5 48 5 48 -24 0 -45 -48 -88 -98 -88 -77 0 -192 61 -207 111 -4 11 -9 18 -12 15 -3 -3 6 -23 20 -44 22 -35 75 -69 152 -99 14 -5 1 -9 -42 -11 -39 -2 -75 3 -99 13 -56 23 -55 9 1 -16 59 -26 147 -23 218 9 50 22 65 11 30 -20 -39 -35 -337 -168 -348 -156 -3 3 -1 27 4 54 17 92 34 319 34 459 0 207 -29 369 -93 513 l-30 67 31 -35 c42 -48 85 -143 99 -217 14 -71 22 -75 88 -48 41 18 74 46 105 90 15 21 8 17 -22 -13 -39 -40 -109 -81 -138 -82 -9 0 -13 15 -13 44 0 42 2 45 41 60 59 24 143 107 170 170 13 30 27 52 31 50 3 -2 22 -53 42 -112z m36 32 c11 -36 20 -71 19 -78 0 -6 -11 23 -25 64 -27 85 -26 80 -19 80 2 0 13 -30 25 -66z m-1345 15 c0 -28 -23 -32 -39 -6 -8 14 -8 20 4 27 22 14 35 6 35 -21z m1491 -88 l31 -34 -20 -48 c-18 -43 -19 -53 -8 -91 9 -28 29 -58 57 -85 30 -27 41 -44 33 -48 -6 -4 -20 -27 -31 -51 -21 -48 -17 -104 8 -125 11 -9 11 -16 -2 -40 -23 -45 -34 -34 -34 35 0 38 -10 98 -25 150 -14 48 -38 149 -55 224 -16 75 -36 159 -44 186 l-15 48 37 -43 c20 -24 51 -59 68 -78z m-1542 73 c8 -22 8 -22 -42 -30 -50 -8 -55 6 -9 29 41 20 44 20 51 1z m244 -11 c25 -25 25 -27 7 -34 -36 -14 -64 -10 -75 12 -9 15 -8 24 1 35 17 21 37 17 67 -13z m289 16 c35 -6 63 -13 63 -16 0 -12 -134 -93 -154 -93 -2 0 -7 18 -11 41 -5 31 -3 45 11 60 20 22 12 22 91 8z m-381 -26 c18 -24 17 -33 -3 -33 -9 0 -32 -5 -50 -12 -29 -10 -36 -10 -43 2 -14 22 -13 25 23 43 42 21 57 21 73 0z m-336 -90 c0 -8 7 -28 16 -45 l16 -30 -39 22 c-46 25 -59 44 -69 95 l-7 38 42 -33 c22 -18 41 -40 41 -47z m75 67 c8 -13 -55 -13 -75 0 -11 7 -4 10 27 10 23 0 45 -4 48 -10z m524 -61 c1 -10 -17 -21 -49 -33 -28 -10 -52 -17 -54 -15 -2 2 -6 19 -9 37 -6 32 -5 33 46 56 l52 23 6 -26 c4 -14 7 -33 8 -42z m-381 44 c-4 -21 -49 -29 -75 -14 -16 9 -16 11 7 20 41 16 72 14 68 -6z m-104 -19 c19 -7 22 -34 4 -34 -7 0 -26 9 -43 20 l-30 20 27 0 c14 0 33 -3 42 -6z m344 -6 c7 -7 12 -27 12 -45 0 -38 -8 -36 -65 11 -25 22 -28 27 -15 36 20 13 53 13 68 -2z m-351 -48 c11 0 23 -22 23 -41 0 -14 -76 -11 -87 4 -14 17 -25 66 -18 77 4 6 21 -1 39 -15 18 -14 38 -25 43 -25z m282 10 l44 -40 -64 0 c-55 1 -69 5 -103 30 l-38 29 33 10 c61 17 82 12 128 -29z m758 -7 c45 -109 71 -354 58 -553 l-7 -115 -39 -27 c-35 -25 -41 -37 -74 -142 -20 -64 -56 -153 -80 -198 -24 -46 -58 -118 -75 -161 -18 -43 -34 -76 -36 -74 -2 2 7 32 22 66 37 93 120 384 151 534 23 114 27 156 28 307 0 96 -4 215 -9 263 -7 67 -6 94 4 113 19 34 39 30 57 -13z m460 15 c-3 -8 -6 -5 -6 6 -1 11 2 17 5 13 3 -3 4 -12 1 -19z m-1371 -23 l29 -24 -26 -1 c-15 0 -41 -3 -58 -6 -28 -6 -31 -4 -31 18 0 50 33 55 86 13z m1595 -6 c14 -47 9 -83 -13 -108 l-23 -26 23 19 c27 23 29 21 34 -28 4 -52 -14 -56 -57 -13 -31 31 -35 41 -35 85 0 35 6 57 21 76 25 31 41 30 50 -5z m-214 -11 c-3 -8 -6 -5 -6 6 -1 11 2 17 5 13 3 -3 4 -12 1 -19z m-2012 -9 c71 -19 164 -71 223 -124 l57 -52 -66 -64 c-88 -85 -114 -134 -30 -56 34 31 66 57 71 57 23 0 20 -25 -8 -63 -34 -49 -57 -92 -66 -127 -4 -14 9 4 29 40 36 66 85 125 85 103 0 -7 -14 -32 -30 -55 -69 -98 -89 -235 -51 -344 38 -108 164 -248 284 -318 110 -64 269 -74 380 -23 112 51 211 192 253 359 l16 67 25 -47 c14 -26 40 -74 59 -108 19 -33 34 -71 34 -83 0 -12 4 -19 10 -16 24 15 -8 203 -49 282 -23 46 -37 122 -28 147 5 13 12 13 38 4 27 -9 34 -8 45 6 7 11 18 15 25 10 9 -5 10 -2 5 11 -4 10 -11 38 -17 63 -5 24 -17 56 -25 71 -8 14 -12 17 -8 6 4 -11 10 -44 12 -74 5 -61 -10 -81 -40 -54 -24 22 -23 47 7 129 14 38 25 71 25 73 0 3 11 -6 24 -19 14 -12 32 -20 40 -17 18 7 31 66 23 106 -5 22 0 34 24 57 19 18 33 24 39 18 12 -12 36 -142 45 -239 17 -192 -110 -737 -227 -968 -86 -171 -257 -326 -513 -464 -44 -23 -72 -43 -62 -43 51 0 182 36 255 71 71 34 103 59 204 157 l121 117 -5 -81 c-5 -86 -14 -116 -29 -93 -5 8 -9 30 -9 49 0 19 -4 41 -9 49 -6 9 -7 -9 -4 -48 6 -62 6 -63 -33 -103 -83 -86 -230 -167 -380 -210 -110 -31 -294 -32 -410 -1 -222 60 -435 207 -552 380 -113 167 -171 333 -173 498 -1 89 -2 89 -10 35 -20 -126 10 -261 97 -430 84 -163 208 -316 352 -433 88 -72 164 -113 268 -147 l85 -27 -62 -12 c-34 -7 -103 -30 -153 -51 -50 -22 -103 -42 -117 -45 -122 -29 -436 238 -553 470 -69 138 -93 316 -76 567 5 84 13 164 16 178 17 70 40 129 64 165 15 22 30 60 33 84 15 119 151 309 261 367 66 34 67 42 2 14 -173 -74 -324 -271 -387 -505 -52 -193 -25 -626 50 -821 71 -184 283 -413 475 -513 82 -44 123 -41 249 13 132 58 211 78 322 81 l90 4 -89 -47 c-83 -44 -186 -123 -186 -142 0 -14 70 -30 130 -30 l55 0 110 115 c102 106 115 116 180 139 l70 26 -70 -67 c-55 -51 -62 -62 -35 -47 19 11 60 44 91 75 31 31 77 69 104 84 l47 28 -27 -43 c-15 -24 -45 -80 -65 -124 -74 -160 -109 -186 -287 -220 -191 -36 -335 -31 -529 19 -117 31 -125 31 -49 -1 156 -65 379 -89 560 -60 126 21 312 83 435 147 195 100 433 306 577 499 135 180 225 360 297 594 94 302 134 487 143 661 6 109 7 116 18 85 34 -99 26 -317 -21 -570 -86 -464 -218 -735 -488 -1005 -197 -197 -395 -320 -641 -398 -343 -110 -672 -82 -999 86 -251 128 -469 360 -601 640 -72 150 -98 264 -98 427 -1 156 9 190 84 274 24 27 35 44 24 38 -27 -14 -97 -88 -130 -137 l-28 -40 7 43 c8 53 54 171 95 243 l32 54 -30 -35 c-17 -19 -44 -69 -61 -110 -17 -41 -37 -88 -46 -105 -12 -25 -14 -26 -8 -5 3 14 10 84 14 155 5 72 9 133 9 136 1 3 19 5 42 5 39 -1 44 3 117 84 l77 85 -81 -73 c-122 -108 -152 -97 -115 41 36 134 120 264 226 349 57 47 91 61 83 36 -3 -7 -26 -24 -51 -38 -43 -23 -127 -110 -127 -131 0 -23 29 -5 58 36 21 31 50 54 92 75 46 23 65 39 75 64 13 30 22 35 77 50 35 9 77 18 93 20 42 6 152 -3 200 -15z m1219 -46 c-19 -38 -46 -111 -60 -163 -16 -64 -23 -79 -18 -46 9 76 42 176 76 229 17 26 31 47 33 47 2 0 -12 -30 -31 -67z m112 -140 c-5 -12 -9 -13 -21 -3 -20 16 -19 34 3 73 l17 32 3 -44 c2 -24 1 -50 -2 -58z m924 -95 c0 -62 -17 -98 -46 -98 -33 0 -28 101 7 138 31 34 39 27 39 -40z m-1123 -80 c-3 -8 -6 -5 -6 6 -1 11 2 17 5 13 3 -3 4 -12 1 -19z m1111 -113 c-5 -77 -18 -105 -48 -105 -20 0 -30 19 -30 58 0 25 61 122 76 122 4 0 4 -34 2 -75z m-3009 -86 c-11 -46 -24 -131 -28 -189 -7 -95 -8 -98 -9 -35 -2 78 11 171 35 258 24 88 26 62 2 -34z m1986 -44 c6 -29 6 -29 -9 -11 -9 11 -16 29 -16 40 0 28 17 8 25 -29z m941 -22 l-6 -48 14 32 c10 22 20 31 29 27 19 -7 25 -30 19 -77 -4 -32 -10 -41 -44 -58 l-40 -20 8 33 c5 18 7 47 6 63 -2 37 7 95 15 95 3 0 2 -21 -1 -47z m-578 -125 c-11 -102 -33 -162 -77 -219 -38 -47 -39 -50 -38 -131 1 -126 -59 -280 -177 -457 -101 -151 -240 -250 -461 -326 -102 -35 -289 -45 -400 -22 -69 15 -218 67 -211 75 2 2 53 -9 113 -24 142 -37 324 -39 448 -5 146 39 288 119 400 224 62 57 74 89 75 189 0 49 9 75 76 212 58 120 79 154 89 146 9 -8 11 -5 8 13 -7 37 104 374 129 392 12 8 24 12 28 10 4 -2 3 -37 -2 -77z m358 -5 c-2 -10 -12 -44 -20 -75 l-16 -57 -144 -46 c-159 -50 -202 -74 -229 -125 -22 -43 -17 -105 12 -133 l20 -21 -31 -18 c-16 -11 -32 -18 -33 -16 -8 8 -8 215 0 228 64 101 81 115 207 168 68 29 146 66 173 82 58 34 68 36 61 13z m259 -50 c-8 -43 -16 -55 -58 -85 l-29 -21 7 44 c10 68 13 74 43 86 42 17 45 15 37 -24z m-50 -184 c-29 -101 -105 -302 -112 -295 -3 2 9 64 25 138 17 73 33 151 36 173 5 30 15 45 39 61 18 12 34 20 35 19 2 -2 -8 -45 -23 -96z m-255 65 c0 -3 -12 -31 -27 -62 -48 -99 -156 -189 -248 -208 -76 -15 -114 80 -59 145 35 42 50 49 194 92 134 41 140 42 140 33z m-106 -331 c-69 -154 -124 -203 -227 -203 -48 0 -62 4 -83 25 -26 27 -26 49 3 112 21 45 62 67 179 97 56 14 112 30 125 35 13 5 27 10 31 10 4 1 -8 -34 -28 -76z m-544 -73 c-6 -11 -13 -20 -16 -20 -2 0 0 9 6 20 6 11 13 20 16 20 2 0 0 -9 -6 -20z m210 -21 c-23 -79 4 -126 77 -138 37 -7 38 -8 35 -48 -5 -78 -54 -165 -149 -264 l-88 -91 -8 93 c-5 52 -10 106 -10 120 -2 26 -3 26 -29 13 -15 -8 -29 -14 -32 -14 -3 0 28 51 67 113 40 62 87 145 106 185 37 77 47 87 31 31z m210 -134 c0 -15 -31 -62 -54 -84 l-26 -24 0 51 c0 50 1 51 33 55 17 2 35 5 40 5 4 1 7 0 7 -3z m-369 -242 c6 -108 -25 -176 -124 -270 -68 -64 -187 -135 -267 -158 -24 -8 -24 -7 -7 16 9 13 42 71 71 129 65 125 102 181 138 210 40 31 161 100 175 100 7 0 14 -12 14 -27z m-643 -333 c-51 -55 -106 -105 -121 -111 -27 -11 -116 -7 -138 6 -14 9 4 29 57 66 61 42 230 127 262 132 15 2 28 5 30 6 2 0 -39 -44 -90 -99z"/>
<path d="M2235 4119 c-9 -17 -15 -34 -13 -39 2 -5 11 9 20 30 20 47 15 53 -7 9z"/>
<path d="M2099 3613 c-13 -16 -12 -17 4 -4 9 7 17 15 17 17 0 8 -8 3 -21 -13z"/>
<path d="M1562 3573 c-14 -26 -16 -80 -3 -88 6 -3 13 15 16 39 9 57 3 79 -13 49z"/>
<path d="M1815 3450 c-21 -22 -36 -42 -34 -45 3 -2 23 13 44 35 21 22 36 42 34 45 -3 2 -23 -13 -44 -35z"/>
<path d="M2850 3899 c-66 -45 -114 -94 -139 -142 -12 -23 -16 -33 -9 -22 29 43 115 128 160 157 26 17 48 33 48 35 0 9 -19 0 -60 -28z"/>
<path d="M2890 3631 c-29 -49 -74 -110 -100 -136 l-48 -47 -51 17 c-68 22 -87 15 -21 -9 28 -10 49 -21 47 -25 -1 -3 -22 -46 -46 -95 -32 -68 -55 -100 -98 -140 -133 -120 -143 -132 -143 -165 0 -42 -21 -81 -65 -120 -28 -25 -32 -31 -17 -31 28 0 70 37 87 76 19 45 54 61 95 44 56 -23 101 19 114 105 l6 40 -17 -47 c-24 -64 -54 -93 -87 -84 -66 17 -49 87 41 164 42 36 63 65 90 122 26 56 54 95 114 156 64 66 86 98 119 169 22 48 39 90 37 92 -3 2 -28 -36 -57 -86z"/>
<path d="M3372 3617 c-1 -21 -9 -51 -17 -67 -9 -17 -13 -30 -11 -30 15 0 37 66 33 98 l-4 37 -1 -38z"/>
<path d="M2884 3350 c-92 -47 -124 -77 -41 -39 43 20 97 35 145 41 175 21 185 25 66 27 -105 1 -114 -1 -170 -29z"/>
<path d="M2215 3021 c-22 -10 -48 -27 -57 -37 -24 -27 -48 -88 -48 -121 l0 -28 33 37 c32 37 127 102 135 93 3 -3 -16 -27 -41 -54 -64 -68 -59 -83 8 -25 49 42 55 44 46 20 -15 -38 4 -33 50 13 43 43 49 71 19 101 -26 26 -91 26 -145 1z"/>
<path d="M2071 2787 c-1 -42 39 -77 89 -77 35 0 43 4 60 33 11 17 20 41 20 52 -1 15 -4 12 -14 -10 -38 -88 -119 -87 -146 1 l-8 29 -1 -28z"/>
<path d="M3128 2179 c-14 -74 -15 -86 -2 -109 15 -25 15 -24 10 15 l-5 40 21 -25 21 -25 -7 25 c-15 54 -18 100 -7 113 8 10 7 18 -2 31 -11 16 -15 7 -29 -65z"/>
<path d="M1723 2140 c-106 -25 -206 -116 -268 -245 -47 -97 -65 -153 -65 -200 0 -23 -3 -27 -10 -15 -7 11 -9 4 -6 -25 3 -22 8 -77 11 -122 7 -104 34 -194 93 -306 81 -155 193 -270 343 -353 74 -41 159 -78 165 -72 1 2 -26 23 -62 47 -70 47 -94 72 -46 47 50 -26 192 -63 267 -70 194 -19 420 83 560 251 l40 48 -66 -57 c-78 -65 -134 -100 -218 -132 -202 -80 -399 -74 -576 17 -60 31 -101 63 -165 127 -122 121 -181 243 -179 365 l1 50 9 -50 c11 -56 39 -148 44 -143 2 2 -5 36 -15 76 -40 153 -34 274 20 401 l20 46 -25 -30 c-47 -56 -93 -204 -96 -305 l-1 -55 -9 40 c-47 227 80 540 238 589 45 14 46 15 15 15 -34 1 -104 -30 -182 -81 l-45 -29 45 41 c60 55 152 98 224 106 55 7 59 6 52 -12 -7 -18 -6 -18 12 1 18 18 19 21 4 33 -17 13 -78 14 -129 2z"/>
<path d="M1811 2034 c0 -11 3 -14 6 -6 3 7 2 16 -1 19 -3 4 -6 -2 -5 -13z"/>
<path d="M1803 1915 c-1 -95 -2 -103 -32 -150 -64 -100 -84 -231 -57 -366 23 -112 65 -197 136 -273 102 -109 225 -157 395 -155 l90 2 -87 8 c-157 15 -266 66 -364 171 -140 149 -177 385 -83 537 l21 34 31 -62 c39 -79 146 -195 223 -241 63 -38 166 -69 229 -69 35 0 31 3 -35 20 -203 55 -370 204 -433 388 -11 31 -23 101 -27 156 l-7 100 0 -100z m9 -174 c-5 -3 -19 -22 -31 -41 -28 -47 -28 -14 1 45 20 42 23 44 30 24 5 -13 5 -25 0 -28z"/>
<path d="M1406 1930 c-84 -90 -135 -235 -155 -445 -10 -100 -10 -100 21 -164 26 -54 180 -261 194 -261 3 0 -31 47 -75 104 -43 58 -90 129 -104 158 -25 52 -25 56 -17 178 13 184 55 304 147 423 24 31 42 57 40 57 -2 0 -25 -23 -51 -50z"/>
<path d="M2870 1720 c0 -3 7 -27 15 -54 32 -105 15 -204 -60 -363 -60 -126 -55 -145 20 -68 47 49 68 99 85 205 14 89 13 128 -5 186 -12 40 -54 112 -55 94z"/>
<path d="M1071 1380 c-1 -40 19 -125 44 -184 26 -61 25 -37 -1 41 -13 39 -28 95 -33 125 -7 44 -9 47 -10 18z"/>
<path d="M1223 1195 c0 -33 2 -45 4 -27 2 18 2 45 0 60 -2 15 -4 0 -4 -33z"/>
<path d="M1230 1111 c0 -42 87 -134 165 -173 47 -25 147 -60 152 -54 3 2 -13 10 -34 16 -112 37 -223 114 -260 182 -13 23 -23 36 -23 29z"/>
<path d="M1495 796 c42 -37 194 -109 293 -140 122 -38 123 -31 2 13 -114 42 -210 85 -280 126 l-45 26 30 -25z"/>
<path d="M3082 958 c-18 -47 -18 -56 -6 -80 33 -64 99 -73 159 -23 l30 26 -35 -21 c-48 -27 -104 -27 -124 2 -18 26 -21 75 -6 114 6 15 9 29 6 31 -2 2 -13 -20 -24 -49z"/>
<path d="M3743 4470 c-68 -31 -104 -79 -88 -117 6 -15 9 -12 16 17 9 43 55 83 124 110 27 10 41 19 30 19 -11 1 -48 -12 -82 -29z"/>
<path d="M3859 4422 c-110 -41 -134 -103 -59 -150 24 -15 24 -15 -2 10 -16 15 -28 34 -28 44 0 33 57 71 137 92 68 18 73 20 38 21 -22 0 -61 -8 -86 -17z"/>
<path d="M3892 4320 c-12 -5 -25 -16 -28 -25 -9 -22 13 -69 44 -97 l25 -23 -21 36 c-31 51 -29 87 4 95 36 9 117 -11 192 -46 34 -16 62 -27 62 -24 0 3 -37 22 -82 44 -88 41 -158 56 -196 40z"/>
<path d="M4085 4060 c10 -11 20 -20 23 -20 3 0 -3 9 -13 20 -10 11 -20 20 -23 20 -3 0 3 -9 13 -20z"/>
<path d="M4110 4026 c0 -2 8 -10 18 -17 15 -13 16 -12 3 4 -13 16 -21 21 -21 13z"/>
<path d="M2560 3984 c-16 -9 -42 -13 -70 -11 l-45 4 33 -13 c38 -16 73 -10 98 17 20 22 18 22 -16 3z"/>
<path d="M4230 3931 l-25 -20 39 -73 c121 -229 138 -267 148 -330 15 -83 3 -144 -33 -170 -25 -19 -28 -19 -58 -4 -17 9 -48 41 -68 71 -19 30 -38 55 -40 55 -11 0 37 -69 78 -113 40 -42 51 -48 80 -45 42 4 79 54 79 107 1 35 1 35 16 16 26 -32 84 -158 84 -180 0 -24 -44 -69 -76 -79 -33 -10 -70 9 -122 61 -37 38 -41 41 -21 13 36 -48 106 -100 135 -100 14 0 40 15 61 34 30 27 37 40 36 69 -2 69 -72 227 -220 499 -41 75 -73 145 -71 155 9 42 127 4 202 -66 l39 -36 -21 32 c-65 94 -189 148 -242 104z"/>
<path d="M685 3571 c-65 -23 -112 -48 -121 -63 -6 -10 -4 -10 7 -2 34 27 132 54 192 54 62 0 136 -25 152 -50 12 -20 0 -21 -49 -4 -74 26 -184 16 -266 -24 -102 -49 -270 -209 -358 -342 -22 -33 -22 -32 10 5 144 171 223 243 313 286 76 36 176 51 257 38 125 -20 175 -65 219 -197 20 -59 48 -117 75 -156 79 -112 97 -152 92 -217 -6 -86 -53 -149 -175 -240 -181 -133 -280 -259 -352 -444 -146 -371 -108 -790 106 -1169 103 -182 301 -425 459 -560 67 -58 66 -57 -17 26 -103 102 -213 237 -302 371 -69 102 -183 317 -170 317 4 0 0 5 -9 11 -10 5 -18 15 -18 22 0 7 4 6 10 -3 17 -26 11 -2 -19 83 -65 185 -76 254 -76 472 0 187 2 206 28 300 54 197 140 340 291 484 246 235 266 262 266 363 0 57 -8 77 -89 219 -18 34 -39 94 -51 148 -33 157 -72 220 -162 265 -64 32 -166 35 -243 7z m-48 -2013 c-3 -8 -6 -5 -6 6 -1 11 2 17 5 13 3 -3 4 -12 1 -19z m10 -60 c-3 -8 -6 -5 -6 6 -1 11 2 17 5 13 3 -3 4 -12 1 -19z m10 -40 c-3 -8 -6 -5 -6 6 -1 11 2 17 5 13 3 -3 4 -12 1 -19z m10 -40 c-3 -8 -6 -5 -6 6 -1 11 2 17 5 13 3 -3 4 -12 1 -19z"/>
<path d="M4752 3220 c0 -14 2 -19 5 -12 2 6 2 18 0 25 -3 6 -5 1 -5 -13z"/>
<path d="M4761 3154 c0 -11 3 -14 6 -6 3 7 2 16 -1 19 -3 4 -6 -2 -5 -13z"/>
<path d="M4553 3090 c-33 -31 -50 -40 -77 -40 -19 0 -38 5 -41 10 -3 6 -11 10 -17 10 -17 0 13 -31 40 -41 34 -13 85 14 116 62 15 21 25 39 24 39 -2 0 -22 -18 -45 -40z"/>
<path d="M4681 3010 c-2 -192 -41 -439 -86 -547 -9 -21 -12 -33 -6 -28 16 16 60 140 82 229 23 95 35 322 21 411 -9 56 -10 52 -11 -65z"/>
<path d="M4601 3044 c-14 -25 -38 -57 -55 -71 -25 -21 -37 -24 -77 -21 -52 5 -58 -9 -14 -32 51 -27 109 13 152 108 31 66 26 77 -6 16z"/>
<path d="M4589 2864 c-48 -33 -129 -43 -166 -20 -26 16 -25 15 5 -13 18 -17 42 -31 55 -31 33 1 99 34 126 64 30 32 26 32 -20 0z"/>
<path d="M4560 2753 c-26 -14 -56 -22 -72 -20 -15 2 -25 0 -22 -5 3 -4 22 -8 42 -8 27 0 47 8 72 30 41 35 39 35 -20 3z"/>
<path d="M993 2558 c-100 -98 -157 -175 -210 -284 -45 -95 -54 -148 -28 -158 11 -4 15 -20 15 -55 0 -43 -5 -55 -34 -85 -18 -20 -41 -36 -49 -36 -14 0 -15 -4 -5 -25 9 -20 9 -41 -1 -90 -16 -80 -9 -110 28 -130 28 -14 29 -17 35 -112 15 -224 57 -389 141 -553 65 -124 85 -144 26 -25 -91 186 -151 409 -151 566 0 100 -7 122 -43 139 -39 18 -45 47 -22 106 10 28 14 55 10 74 -6 27 -2 35 35 68 31 28 45 51 56 92 28 99 28 100 4 125 -21 22 -22 28 -12 62 20 68 109 198 202 296 51 53 89 97 85 97 -4 0 -41 -33 -82 -72z m-205 -390 c13 -13 16 -48 4 -48 -14 0 -32 23 -32 42 0 21 11 23 28 6z"/>
<path d="M4426 2237 c-16 -45 -51 -128 -77 -184 -26 -57 -45 -103 -43 -103 9 0 111 223 134 293 31 97 20 92 -14 -6z"/>
<path d="M4740 2145 c0 -13 12 -55 26 -92 133 -353 135 -762 4 -1155 -123 -370 -348 -683 -620 -862 l-55 -36 35 0 c27 0 54 14 122 65 88 66 265 234 333 315 35 43 35 42 -6 -19 -61 -89 -197 -230 -291 -301 -68 -52 -76 -60 -53 -60 61 0 303 236 421 410 124 182 200 352 257 570 32 124 32 126 32 370 0 269 -9 337 -67 520 -29 93 -121 300 -132 300 -3 0 -6 -11 -6 -25z"/>
<path d="M4206 1623 c-91 -178 -173 -305 -289 -448 -45 -55 -73 -94 -64 -86 30 24 163 193 231 294 62 91 214 382 205 391 -2 3 -40 -65 -83 -151z"/>
</g>
</svg>
